{
    "asset" : {
        "generator" : "Khronos glTF Blender I/O v1.7.33",
        "version" : "2.0"
    },
    "scene" : 0,
    "scenes" : [
        {
            "name" : "Scene",
            "nodes" : [
                0,
                1,
                2
            ]
        }
    ],
    "nodes" : [
        {
            "mesh" : 0,
            "name" : "Test_Auditorium",
            "rotation" : [
                -0.7071068286895752,
                0,
                0,
                0.7071068286895752
            ],
            "translation" : [
                0,
                2.8742737770080566,
                6.204366207122803
            ]
        },
        {
            "mesh" : 1,
            "name" : "Sphere",
            "rotation" : [
                -0.7071068286895752,
                0,
                0,
                0.7071068286895752
            ],
            "translation" : [
                1.8426494598388672,
                4.735161781311035,
                -0.7474486827850342
            ]
        },
        {
            "mesh" : 2,
            "name" : "Sphere.001",
            "rotation" : [
                -0.7071068286895752,
                0,
                0,
                0.7071068286895752
            ],
            "translation" : [
                19.741479873657227,
                6.008524417877197,
                -0.4617784023284912
            ]
        }
    ],
    "materials" : [
        {
            "doubleSided" : true,
            "name" : "WoodStageFloor",
            "pbrMetallicRoughness" : {
                "baseColorFactor" : [
                    0.800000011920929,
                    0.800000011920929,
                    0.800000011920929,
                    1
                ],
                "metallicFactor" : 0,
                "roughnessFactor" : 0.5
            }
        },
        {
            "doubleSided" : true,
            "name" : "Tectum",
            "pbrMetallicRoughness" : {
                "baseColorFactor" : [
                    0.800000011920929,
                    0.800000011920929,
                    0.800000011920929,
                    1
                ],
                "metallicFactor" : 0,
                "roughnessFactor" : 0.5
            }
        },
        {
            "doubleSided" : true,
            "name" : "Audience",
            "pbrMetallicRoughness" : {
                "baseColorFactor" : [
                    0.800000011920929,
                    0.800000011920929,
                    0.800000011920929,
                    1
                ],
                "metallicFactor" : 0,
                "roughnessFactor" : 0.5
            }
        },
        {
            "doubleSided" : true,
            "name" : "Plaster",
            "pbrMetallicRoughness" : {
                "baseColorFactor" : [
                    0.800000011920929,
                    0.800000011920929,
                    0.800000011920929,
                    1
                ],
                "metallicFactor" : 0,
                "roughnessFactor" : 0.5
            }
        },
        {
            "doubleSided" : true,
            "name" : "PaintedCMU",
            "pbrMetallicRoughness" : {
                "baseColorFactor" : [
                    0.800000011920929,
                    0.800000011920929,
                    0.800000011920929,
                    1
                ],
                "metallicFactor" : 0,
                "roughnessFactor" : 0.5
            }
        }
    ],
    "meshes" : [
        {
            "name" : "Test_Auditorium",
            "primitives" : [
                {
                    "attributes" : {
                        "POSITION" : 0,
                        "NORMAL" : 1
                    },
                    "indices" : 2,
                    "material" : 0
                },
                {
                    "attributes" : {
                        "POSITION" : 3,
                        "NORMAL" : 4
                    },
                    "indices" : 5,
                    "material" : 1
                },
                {
                    "attributes" : {
                        "POSITION" : 6,
                        "NORMAL" : 7
                    },
                    "indices" : 8,
                    "material" : 2
                },
                {
                    "attributes" : {
                        "POSITION" : 9,
                        "NORMAL" : 10
                    },
                    "indices" : 11,
                    "material" : 3
                },
                {
                    "attributes" : {
                        "POSITION" : 12,
                        "NORMAL" : 13
                    },
                    "indices" : 14,
                    "material" : 4
                }
            ]
        },
        {
            "name" : "Sphere",
            "primitives" : [
                {
                    "attributes" : {
                        "POSITION" : 15,
                        "NORMAL" : 16,
                        "TEXCOORD_0" : 17
                    },
                    "indices" : 18
                }
            ]
        },
        {
            "name" : "Sphere.001",
            "primitives" : [
                {
                    "attributes" : {
                        "POSITION" : 19,
                        "NORMAL" : 20,
                        "TEXCOORD_0" : 21
                    },
                    "indices" : 22
                }
            ]
        }
    ],
    "accessors" : [
        {
            "bufferView" : 0,
            "componentType" : 5126,
            "count" : 12,
            "max" : [
                3.6396543979644775,
                14.90719985961914,
                0
            ],
            "min" : [
                0,
                -1.3552000522613525,
                -0.6776000261306763
            ],
            "type" : "VEC3"
        },
        {
            "bufferView" : 1,
            "componentType" : 5126,
            "count" : 12,
            "type" : "VEC3"
        },
        {
            "bufferView" : 2,
            "componentType" : 5123,
            "count" : 18,
            "type" : "SCALAR"
        },
        {
            "bufferView" : 3,
            "componentType" : 5126,
            "count" : 18,
            "max" : [
                25.951091766357422,
                18.052879333496094,
                8.243200302124023
            ],
            "min" : [
                23.240692138671875,
                -4.500878810882568,
                0.5723999738693237
            ],
            "type" : "VEC3"
        },
        {
            "bufferView" : 4,
            "componentType" : 5126,
            "count" : 18,
            "type" : "VEC3"
        },
        {
            "bufferView" : 5,
            "componentType" : 5123,
            "count" : 24,
            "type" : "SCALAR"
        },
        {
            "bufferView" : 6,
            "componentType" : 5126,
            "count" : 17,
            "max" : [
                25.951091766357422,
                18.052879333496094,
                0.5723999738693237
            ],
            "min" : [
                3.6396543979644775,
                -4.500878810882568,
                -0.6776000261306763
            ],
            "type" : "VEC3"
        },
        {
            "bufferView" : 7,
            "componentType" : 5126,
            "count" : 17,
            "type" : "VEC3"
        },
        {
            "bufferView" : 8,
            "componentType" : 5123,
            "count" : 21,
            "type" : "SCALAR"
        },
        {
            "bufferView" : 9,
            "componentType" : 5126,
            "count" : 62,
            "max" : [
                25.951091766357422,
                18.052879333496094,
                8.243200302124023
            ],
            "min" : [
                0,
                -4.500878810882568,
                -0.6776000261306763
            ],
            "type" : "VEC3"
        },
        {
            "bufferView" : 10,
            "componentType" : 5126,
            "count" : 62,
            "type" : "VEC3"
        },
        {
            "bufferView" : 11,
            "componentType" : 5123,
            "count" : 75,
            "type" : "SCALAR"
        },
        {
            "bufferView" : 12,
            "componentType" : 5126,
            "count" : 24,
            "max" : [
                3.6396543979644775,
                14.90719985961914,
                4.743199825286865
            ],
            "min" : [
                0,
                -1.3552000522613525,
                0
            ],
            "type" : "VEC3"
        },
        {
            "bufferView" : 13,
            "componentType" : 5126,
            "count" : 24,
            "type" : "VEC3"
        },
        {
            "bufferView" : 14,
            "componentType" : 5123,
            "count" : 30,
            "type" : "SCALAR"
        },
        {
            "bufferView" : 15,
            "componentType" : 5126,
            "count" : 330,
            "max" : [
                0.2500000298023224,
                0.25,
                0.25
            ],
            "min" : [
                -0.24999995529651642,
                -0.25,
                -0.25
            ],
            "type" : "VEC3"
        },
        {
            "bufferView" : 16,
            "componentType" : 5126,
            "count" : 330,
            "type" : "VEC3"
        },
        {
            "bufferView" : 17,
            "componentType" : 5126,
            "count" : 330,
            "type" : "VEC2"
        },
        {
            "bufferView" : 18,
            "componentType" : 5123,
            "count" : 336,
            "type" : "SCALAR"
        },
        {
            "bufferView" : 19,
            "componentType" : 5126,
            "count" : 330,
            "max" : [
                0.2500000298023224,
                0.25,
                0.25
            ],
            "min" : [
                -0.24999995529651642,
                -0.25,
                -0.25
            ],
            "type" : "VEC3"
        },
        {
            "bufferView" : 20,
            "componentType" : 5126,
            "count" : 330,
            "type" : "VEC3"
        },
        {
            "bufferView" : 21,
            "componentType" : 5126,
            "count" : 330,
            "type" : "VEC2"
        },
        {
            "bufferView" : 22,
            "componentType" : 5123,
            "count" : 336,
            "type" : "SCALAR"
        }
    ],
    "bufferViews" : [
        {
            "buffer" : 0,
            "byteLength" : 144,
            "byteOffset" : 0
        },
        {
            "buffer" : 0,
            "byteLength" : 144,
            "byteOffset" : 144
        },
        {
            "buffer" : 0,
            "byteLength" : 36,
            "byteOffset" : 288
        },
        {
            "buffer" : 0,
            "byteLength" : 216,
            "byteOffset" : 324
        },
        {
            "buffer" : 0,
            "byteLength" : 216,
            "byteOffset" : 540
        },
        {
            "buffer" : 0,
            "byteLength" : 48,
            "byteOffset" : 756
        },
        {
            "buffer" : 0,
            "byteLength" : 204,
            "byteOffset" : 804
        },
        {
            "buffer" : 0,
            "byteLength" : 204,
            "byteOffset" : 1008
        },
        {
            "buffer" : 0,
            "byteLength" : 42,
            "byteOffset" : 1212
        },
        {
            "buffer" : 0,
            "byteLength" : 744,
            "byteOffset" : 1256
        },
        {
            "buffer" : 0,
            "byteLength" : 744,
            "byteOffset" : 2000
        },
        {
            "buffer" : 0,
            "byteLength" : 150,
            "byteOffset" : 2744
        },
        {
            "buffer" : 0,
            "byteLength" : 288,
            "byteOffset" : 2896
        },
        {
            "buffer" : 0,
            "byteLength" : 288,
            "byteOffset" : 3184
        },
        {
            "buffer" : 0,
            "byteLength" : 60,
            "byteOffset" : 3472
        },
        {
            "buffer" : 0,
            "byteLength" : 3960,
            "byteOffset" : 3532
        },
        {
            "buffer" : 0,
            "byteLength" : 3960,
            "byteOffset" : 7492
        },
        {
            "buffer" : 0,
            "byteLength" : 2640,
            "byteOffset" : 11452
        },
        {
            "buffer" : 0,
            "byteLength" : 672,
            "byteOffset" : 14092
        },
        {
            "buffer" : 0,
            "byteLength" : 3960,
            "byteOffset" : 14764
        },
        {
            "buffer" : 0,
            "byteLength" : 3960,
            "byteOffset" : 18724
        },
        {
            "buffer" : 0,
            "byteLength" : 2640,
            "byteOffset" : 22684
        },
        {
            "buffer" : 0,
            "byteLength" : 672,
            "byteOffset" : 25324
        }
    ],
    "buffers" : [
        {
            "byteLength" : 25996,
            "uri" : "data:application/octet-stream;base64,"
        }
    ]
}
