<svg width="512" height="512" viewBox="0 0 512 512" fill="none" xmlns="http://www.w3.org/2000/svg">
<path d="M14.9734 247.355C8.31386 251.205 8.31382 260.819 14.9734 264.669L240.984 395.342C250.274 400.713 261.726 400.713 271.016 395.342L497.027 264.669C503.686 260.819 503.686 251.205 497.027 247.355L271.016 116.682C261.726 111.311 250.274 111.311 240.984 116.682L14.9734 247.355ZM342.226 176.077C330.826 182.616 319.652 188.608 306.944 192.391C305.956 192.686 305.058 192.901 304.122 193.143C299.042 190.671 293.962 188.245 288.945 185.878C282.494 182.832 276.048 179.786 269.654 176.619C266.512 175.061 263.408 173.42 260.276 171.794C273.116 164.945 285.746 157.732 298.128 150.577L342.226 176.077ZM390.296 203.87C378.476 210.641 365.752 217.396 352.392 220.832C345.662 216.344 338.817 211.941 331.851 207.816C324.538 203.481 316.994 199.514 309.413 195.737C322.694 191.586 334.672 185.026 346.188 178.376L390.296 203.87ZM438.335 231.643C425.868 238.835 413.17 246.053 400.268 252.871C396.774 250.667 393.27 248.473 389.834 246.216C382.978 241.718 376.212 237.062 369.456 232.416C365.211 229.502 360.908 226.561 356.558 223.636C370.154 219.601 382.936 212.656 394.237 206.148L438.335 231.643ZM480.479 256.012L442.291 278.092C430.024 270.974 417.021 263.377 404.092 255.317C417.042 248.415 429.777 241.134 442.27 233.921L480.479 256.012ZM69.7251 233.921C82.2127 241.134 94.9421 248.42 107.903 255.317C94.9736 263.367 81.9711 270.984 69.704 278.092L31.5213 256.012L69.7251 233.921ZM117.758 206.148C129.053 212.651 141.825 219.616 155.41 223.652C151.081 226.571 146.784 229.502 142.56 232.406C135.788 237.057 129.022 241.718 122.161 246.216C118.73 248.473 115.226 250.667 111.738 252.871C98.835 246.053 86.1371 238.829 73.6705 231.638L117.758 206.148ZM213.872 150.582C226.254 157.732 238.879 164.95 251.718 171.8C248.593 173.42 245.477 175.067 242.336 176.624C235.937 179.796 229.485 182.842 223.034 185.888C218.027 188.256 212.958 190.676 207.888 193.138C206.958 192.896 206.055 192.68 205.072 192.386C192.364 188.603 181.19 182.616 169.784 176.056L213.872 150.582ZM329.849 211.209C335.649 214.645 341.365 218.296 347.028 222.015C342.368 222.873 337.645 223.304 332.859 223.12C327.18 222.936 322.2 222.505 317.377 222.084C313.069 221.71 309.035 221.374 305.126 221.284C303.025 218.89 300.871 216.528 298.664 214.229C292.423 207.774 286.423 202.56 279.588 198.951C282.226 199.178 284.852 199.351 287.569 199.351C292.391 199.351 297.587 198.804 303.702 197.326C312.539 201.65 321.359 206.18 329.849 211.209ZM208.324 197.321C214.434 198.799 219.63 199.346 224.447 199.346C227.237 199.346 229.927 199.162 232.632 198.925C225.677 202.555 219.609 207.764 213.52 214.056C211.24 216.407 209.039 218.833 206.874 221.289C202.976 221.379 198.947 221.71 194.644 222.084C189.821 222.505 184.83 222.941 179.146 223.12C174.36 223.289 169.642 222.852 165.003 222.005C170.651 218.291 176.362 214.645 182.156 211.215C190.646 206.18 199.477 201.65 208.324 197.321ZM256.126 197.268C273.5 197.442 284.196 204.933 295.817 216.97C297.193 218.396 298.522 219.88 299.857 221.353C288.488 221.958 277.734 225.856 263.943 239.45C261.196 242.154 258.574 244.969 256.005 247.831C253.436 244.969 250.815 242.154 248.067 239.45C234.277 225.856 223.517 221.963 212.143 221.363C213.536 219.832 214.917 218.291 216.352 216.807C227.946 204.828 238.648 197.384 256.126 197.268ZM179.277 227.066C185.067 226.877 190.336 226.419 194.991 226.019C197.954 225.761 200.722 225.53 203.381 225.372C198.931 230.628 194.66 235.978 190.488 241.25C188.014 244.375 185.545 247.5 183.034 250.598C174.47 261.162 166.989 269.301 159.492 276.245C154.58 273.862 149.679 271.532 144.83 269.233C138.373 266.186 131.917 263.135 125.518 259.963C122.261 258.348 119.03 256.643 115.793 254.96C118.641 253.15 121.509 251.361 124.32 249.52C131.207 244.995 138 240.329 144.788 235.668C149.936 232.132 155.174 228.555 160.464 225.014C166.611 226.461 172.899 227.261 179.277 227.066ZM186.091 253.081C188.613 249.972 191.092 246.831 193.577 243.696C198.453 237.535 203.465 231.248 208.734 225.183C220.917 225.146 231.046 228.208 245.299 242.26C248.093 245.011 250.767 247.899 253.384 250.83C248.041 256.985 242.976 263.325 238.054 269.575C231.324 278.113 224.363 286.936 216.772 294.969C213.835 298.073 210.772 300.977 207.667 303.787C201.121 299.436 194.47 295.159 187.709 291.155C179.745 286.441 171.507 282.164 163.243 278.097C170.546 271.211 177.869 263.225 186.091 253.081ZM219.635 297.673C227.347 289.514 234.366 280.617 241.148 272.016C245.929 265.96 250.841 259.8 256 253.828C261.159 259.8 266.071 265.96 270.857 272.021C277.645 280.623 284.658 289.524 292.37 297.679C295.149 300.619 298.034 303.376 300.965 306.049C296.184 309.263 291.44 312.509 286.786 315.692C279.993 320.359 273.2 325.025 266.307 329.555C262.914 331.785 259.457 333.953 256.01 336.131C252.564 333.953 249.102 331.785 245.708 329.555C238.816 325.036 232.023 320.359 225.23 315.692C220.57 312.504 215.837 309.263 211.056 306.049C213.972 303.376 216.856 300.619 219.635 297.673ZM295.233 294.969C287.647 286.941 280.676 278.113 273.951 269.575C269.029 263.325 263.964 256.98 258.622 250.824C261.238 247.894 263.912 245.011 266.707 242.26C280.965 228.213 291.094 225.14 303.277 225.177C308.53 231.227 313.537 237.504 318.402 243.654C320.918 246.842 323.45 250.03 326.014 253.192C334.194 263.282 341.48 271.242 348.762 278.071C340.503 282.138 332.266 286.425 324.301 291.134C317.535 295.148 310.884 299.415 304.343 303.765C301.228 300.972 298.16 298.073 295.233 294.969ZM329.066 250.709C326.513 247.557 323.997 244.38 321.48 241.202C317.319 235.946 313.053 230.607 308.62 225.367C311.278 225.525 314.052 225.756 317.025 226.019C321.675 226.424 326.944 226.882 332.723 227.066C339.085 227.25 345.373 226.44 351.509 224.988C356.816 228.534 362.069 232.122 367.223 235.668C374.01 240.329 380.793 244.99 387.68 249.514C390.491 251.361 393.364 253.15 396.207 254.96C392.976 256.643 389.745 258.348 386.477 259.963C380.062 263.14 373.595 266.197 367.123 269.259C362.3 271.537 357.435 273.862 352.56 276.219C345.021 269.259 337.535 261.141 329.066 250.709ZM274.519 194.501C269.848 194.017 264.558 193.464 258.291 193.333C258.275 193.333 258.264 193.333 258.249 193.333C258.086 193.333 257.944 193.385 257.791 193.422C257.24 193.406 256.736 193.322 256.163 193.317H256.158C256.152 193.317 256.152 193.317 256.147 193.317C256.147 193.317 256.142 193.317 256.137 193.317C255.553 193.317 255.033 193.401 254.461 193.422C254.235 193.354 253.998 193.312 253.715 193.333C247.447 193.459 242.157 194.011 237.487 194.495C229.517 195.327 222.808 196.011 214.061 194.511C217.628 192.801 221.185 191.118 224.715 189.455C231.188 186.394 237.665 183.337 244.09 180.154C248.083 178.176 252.044 176.103 256.005 174.025C259.961 176.103 263.922 178.171 267.915 180.149C274.34 183.326 280.812 186.388 287.285 189.44C290.821 191.107 294.393 192.791 297.96 194.506C289.192 196.011 282.488 195.327 274.519 194.501ZM165.812 178.371C177.339 185.02 189.317 191.586 202.592 195.732C195.012 199.509 187.462 203.481 180.149 207.811C173.194 211.935 166.359 216.334 159.634 220.816C146.248 217.386 133.535 210.641 121.709 203.87L165.812 178.371ZM111.948 257.416C115.877 259.479 119.812 261.531 123.774 263.498C130.199 266.676 136.676 269.743 143.154 272.805C147.52 274.872 151.927 276.966 156.34 279.092C145.103 288.998 133.451 296.611 117.732 305.859L73.6442 280.37C85.9953 273.205 99.0188 265.529 111.948 257.416ZM160.133 280.949C168.781 285.189 177.407 289.629 185.697 294.543C192.091 298.331 198.4 302.361 204.615 306.485C192.038 317.344 178.489 326.104 165.77 333.637L121.641 308.122C136.939 299.046 148.675 291.223 160.133 280.949ZM207.998 308.753C213.052 312.151 218.064 315.566 222.987 318.949C229.801 323.636 236.62 328.308 243.533 332.864C246.433 334.763 249.391 336.615 252.333 338.472C239.288 346.605 226.197 354.276 213.851 361.431L169.674 335.894C182.282 328.35 195.595 319.596 207.998 308.753ZM256 340.808C268.924 348.915 281.91 356.57 294.209 363.709L256 385.8L217.791 363.709C230.095 356.564 243.082 348.91 256 340.808ZM259.662 338.472C262.604 336.604 265.561 334.763 268.456 332.864C275.37 328.329 282.184 323.636 289.003 318.954C293.931 315.571 298.942 312.151 303.996 308.758C316.405 319.612 329.718 328.36 342.321 335.894L298.139 361.431C285.809 354.281 272.717 346.611 259.662 338.472ZM307.374 306.485C313.6 302.366 319.904 298.336 326.298 294.543C334.593 289.629 343.219 285.189 351.861 280.954C363.319 291.223 375.051 299.041 390.354 308.122L346.23 333.632C333.511 326.098 319.962 317.349 307.374 306.485ZM355.712 279.065C360.094 276.956 364.475 274.862 368.804 272.815C375.292 269.759 381.786 266.681 388.221 263.498C392.182 261.531 396.117 259.479 400.047 257.416C412.976 265.529 425.994 273.199 438.351 280.365L394.258 305.859C378.817 296.753 367.076 289.051 355.712 279.065ZM256 169.601C243.061 162.761 230.321 155.517 217.812 148.304L256 126.224L294.193 148.304C281.685 155.517 268.945 162.761 256 169.601Z" fill="url(#paint0_linear_24_2)"/>
<defs>
<linearGradient id="paint0_linear_24_2" x1="218" y1="325.5" x2="272.5" y2="174.5" gradientUnits="userSpaceOnUse">
<stop stop-color="#EFC000"/>
<stop offset="1" stop-color="#F5D90A"/>
</linearGradient>
</defs>
</svg>
